<?xml version="1.0" encoding="UTF-8"?>
<svg xmlns="http://www.w3.org/2000/svg" xmlns:xlink="http://www.w3.org/1999/xlink" width="12pt" height="12pt" viewBox="0 0 12 12" version="1.1">
<g id="surface1279">
<path style=" stroke:none;fill-rule:nonzero;fill:rgb(72.941178%,87.843138%,74.117649%);fill-opacity:1;" d="M 6 11.550781 C 2.941406 11.550781 0.449219 9.058594 0.449219 6 C 0.449219 2.941406 2.941406 0.449219 6 0.449219 C 9.058594 0.449219 11.550781 2.941406 11.550781 6 C 11.550781 9.058594 9.058594 11.550781 6 11.550781 Z M 6 11.550781 "/>
<path style=" stroke:none;fill-rule:nonzero;fill:rgb(36.862746%,61.176473%,46.27451%);fill-opacity:1;" d="M 6 0.601562 C 8.96875 0.601562 11.398438 3.03125 11.398438 6 C 11.398438 8.96875 8.96875 11.398438 6 11.398438 C 3.03125 11.398438 0.601562 8.96875 0.601562 6 C 0.601562 3.03125 3.03125 0.601562 6 0.601562 M 6 0.300781 C 2.851562 0.300781 0.300781 2.851562 0.300781 6 C 0.300781 9.148438 2.851562 11.699219 6 11.699219 C 9.148438 11.699219 11.699219 9.148438 11.699219 6 C 11.699219 2.851562 9.148438 0.300781 6 0.300781 Z M 6 0.300781 "/>
<path style="fill:none;stroke-width:3;stroke-linecap:butt;stroke-linejoin:miter;stroke:rgb(100%,100%,100%);stroke-opacity:1;stroke-miterlimit:10;" d="M 11.197917 20.104167 L 17.005208 25.898438 L 30.195312 12.695312 " transform="matrix(0.3,0,0,0.3,0,0)"/>
</g>
</svg>
